<?xml version="1.0" encoding="utf-8"?>
<!-- Generator: Adobe Illustrator 18.1.1, SVG Export Plug-In . SVG Version: 6.00 Build 0)  -->
<svg version="1.1" id="Layer_1" xmlns="http://www.w3.org/2000/svg" xmlns:xlink="http://www.w3.org/1999/xlink" x="0px" y="0px"
	 viewBox="0 0 119.8 26.7" enable-background="new 0 0 119.8 26.7" xml:space="preserve">
<g>
	<path fill="#E0653D" d="M17,15.3c-0.1,1.5-0.7,2.7-1.7,3.5s-2.3,1.3-3.9,1.3c-1.1,0-2.1-0.3-3-0.8s-1.5-1.3-2-2.3s-0.7-2.1-0.7-3.4
		v-1.3C5.7,11,6,9.8,6.5,8.8s1.2-1.8,2-2.4s1.9-0.8,3.1-0.8c1.6,0,2.8,0.4,3.8,1.3s1.5,2.1,1.7,3.6h-2.5c-0.1-1-0.4-1.8-0.9-2.2
		c-0.5-0.5-1.2-0.7-2.1-0.7c-1.1,0-1.9,0.4-2.5,1.2s-0.9,1.9-0.9,3.5v1.3c0,1.5,0.3,2.7,0.8,3.5s1.4,1.2,2.4,1.2
		c1,0,1.7-0.2,2.2-0.7s0.8-1.2,0.9-2.2H17z"/>
	<path fill="#E0653D" d="M34.6,13.2c0,1.4-0.2,2.6-0.7,3.7s-1.2,1.9-2.1,2.4c-0.9,0.6-1.9,0.8-3.1,0.8c-1.2,0-2.2-0.3-3.1-0.8
		c-0.9-0.6-1.6-1.4-2.1-2.4s-0.7-2.2-0.7-3.6v-0.8c0-1.4,0.2-2.6,0.7-3.7s1.2-1.9,2.1-2.4s1.9-0.8,3.1-0.8s2.2,0.3,3.1,0.8
		s1.6,1.4,2.1,2.4s0.7,2.3,0.7,3.6V13.2z M32.1,12.5c0-1.6-0.3-2.8-0.9-3.6s-1.4-1.3-2.5-1.3c-1.1,0-1.9,0.4-2.5,1.3s-0.9,2-0.9,3.5
		v0.8c0,1.6,0.3,2.8,0.9,3.6s1.5,1.3,2.5,1.3c1.1,0,1.9-0.4,2.5-1.3s0.9-2.1,0.9-3.7V12.5z"/>
	<path fill="#E0653D" d="M52.4,20h-2.5L43.6,9.9V20h-2.5V5.8h2.5l6.4,10.1V5.8h2.5V20z"/>
	<path fill="#F5AE0A" d="M68.2,18l-9.7-4.3v-1.4l9.7-4.8v2.3l-6.7,3.1l6.7,2.7V18z"/>
	<path fill="#F5AE0A" d="M81.5,5.7L76.2,20h-2.7l5.3-14.3H81.5z"/>
	<path fill="#E0653D" d="M94.4,16.3c0-0.6-0.2-1.1-0.7-1.4s-1.2-0.7-2.4-1s-2.1-0.7-2.7-1.2c-1.3-0.8-1.9-1.9-1.9-3.2
		c0-1.1,0.5-2.1,1.4-2.8s2.1-1.1,3.6-1.1c1,0,1.9,0.2,2.6,0.5s1.4,0.9,1.8,1.6s0.7,1.4,0.7,2.2h-2.5c0-0.7-0.2-1.3-0.7-1.7
		c-0.5-0.4-1.1-0.6-2-0.6c-0.8,0-1.4,0.2-1.9,0.5c-0.4,0.3-0.7,0.8-0.7,1.4c0,0.5,0.2,1,0.7,1.3c0.5,0.3,1.3,0.7,2.4,1
		s2,0.7,2.7,1.1s1.2,0.9,1.5,1.4s0.5,1.2,0.5,1.9c0,1.2-0.5,2.1-1.4,2.8c-0.9,0.7-2.1,1-3.7,1c-1,0-2-0.2-2.8-0.6s-1.5-0.9-2-1.6
		c-0.5-0.7-0.7-1.5-0.7-2.3h2.5c0,0.8,0.3,1.4,0.8,1.9s1.3,0.7,2.3,0.7c0.9,0,1.5-0.2,1.9-0.5S94.4,16.9,94.4,16.3z"/>
	<path fill="#E0653D" d="M111.5,13.6h-5.8V18h6.8v2h-9.3V5.8h9.2v2h-6.8v3.9h5.8V13.6z"/>
</g>
</svg>
